<?xml version="1.0" standalone="no"?>
<!DOCTYPE svg PUBLIC "-//W3C//DTD SVG 20010904//EN"
 "http://www.w3.org/TR/2001/REC-SVG-20010904/DTD/svg10.dtd">
<svg version="1.0" xmlns="http://www.w3.org/2000/svg"
 width="196.000000pt" height="196.000000pt" viewBox="0 0 196.000000 196.000000"
 preserveAspectRatio="xMidYMid meet">

<g transform="translate(0.000000,196.000000) scale(0.100000,-0.100000)"
fill="#000000" stroke="none">
<path d="M883 1697 c-170 -63 -245 -278 -147 -423 l25 -36 -33 -42 c-18 -23
-76 -97 -128 -164 -92 -117 -96 -121 -125 -114 -93 22 -187 -12 -239 -86 -25
-35 -31 -55 -34 -110 -5 -85 23 -143 90 -188 91 -61 189 -52 269 25 78 76 88
149 35 272 -5 10 33 65 119 175 70 87 129 159 133 159 4 0 24 -6 45 -13 l37
-14 0 -228 0 -228 -54 -31 c-183 -103 -128 -382 78 -399 94 -8 175 37 217 119
23 45 25 134 5 182 -17 42 -69 94 -112 112 l-34 14 2 232 3 232 37 13 37 13
131 -164 130 -163 -20 -43 c-27 -61 -26 -124 5 -186 79 -158 302 -158 380 2
22 45 27 65 23 109 -10 116 -97 200 -207 198 -31 -1 -67 -2 -80 -4 -19 -3 -43
22 -148 155 l-126 158 33 64 c27 53 33 76 33 128 0 162 -125 288 -283 286 -36
0 -79 -6 -97 -12z m177 -112 c53 -28 100 -103 100 -162 -1 -82 -76 -163 -160
-171 -65 -6 -93 2 -136 40 -66 58 -81 136 -43 215 43 88 149 123 239 78z
m-594 -784 c67 -41 70 -135 5 -178 -19 -13 -45 -23 -58 -23 -56 0 -113 56
-113 110 0 33 28 78 58 94 37 21 71 20 108 -3z m1157 -21 c64 -72 15 -180 -83
-180 -47 0 -100 56 -100 105 0 47 14 71 53 96 44 27 93 19 130 -21z m-613
-210 c5 0 22 -12 39 -26 76 -64 29 -184 -72 -184 -31 0 -46 7 -73 34 -38 38
-44 77 -20 124 18 35 75 65 104 56 8 -2 17 -4 22 -4z"/>
</g>
</svg>
