<?xml version="1.0" encoding="UTF-8"?>
<!DOCTYPE svg PUBLIC "-//W3C//DTD SVG 1.1//EN" "http://www.w3.org/Graphics/SVG/1.1/DTD/svg11.dtd">
<svg xmlns="http://www.w3.org/2000/svg" version="1.1" width="196px" height="196px" style="shape-rendering:geometricPrecision; text-rendering:geometricPrecision; image-rendering:optimizeQuality; fill-rule:evenodd; clip-rule:evenodd" xmlns:xlink="http://www.w3.org/1999/xlink">
<g><path style="opacity:1" fill="#d7e8ef" d="M -0.5,-0.5 C 64.8333,-0.5 130.167,-0.5 195.5,-0.5C 195.5,64.8333 195.5,130.167 195.5,195.5C 130.167,195.5 64.8333,195.5 -0.5,195.5C -0.5,130.167 -0.5,64.8333 -0.5,-0.5 Z"/></g>
<g><path style="opacity:1" fill="#35445c" d="M 89.5,24.5 C 113.682,22.5239 125.848,33.5239 126,57.5C 124.81,62.2132 122.81,66.5465 120,70.5C 119.333,71.5 119.333,72.5 120,73.5C 128.167,83.6667 136.333,93.8333 144.5,104C 158.268,100.367 168.434,104.867 175,117.5C 177.179,137.32 168.345,146.82 148.5,146C 132.696,138.566 128.696,127.066 136.5,111.5C 127.856,100.356 119.023,89.3555 110,78.5C 107.667,79.5 105.333,80.5 103,81.5C 102.333,96.8333 102.333,112.167 103,127.5C 117.118,133.41 121.784,143.743 117,158.5C 110.859,168.486 102.025,172.32 90.5,170C 75.6188,161.977 72.1188,150.477 80,135.5C 83.1845,131.996 87.0178,129.663 91.5,128.5C 91.8327,112.819 91.4994,97.1525 90.5,81.5C 88.2895,80.8772 86.2895,79.8772 84.5,78.5C 75.6033,89.2793 66.9367,100.279 58.5,111.5C 65.1691,123.626 63.1691,134.126 52.5,143C 39.0792,149.54 28.5792,146.374 21,133.5C 16.7009,113.25 24.8676,103.084 45.5,103C 47.1459,104.401 48.8125,104.568 50.5,103.5C 58.4762,93.0229 66.6429,82.6896 75,72.5C 62.9659,51.4339 67.7993,35.4339 89.5,24.5 Z"/></g>
<g><path style="opacity:1" fill="#d5e6ee" d="M 90.5,35.5 C 106.169,33.3558 114.335,40.0224 115,55.5C 111.603,67.2905 103.77,72.1238 91.5,70C 81.7101,65.5874 77.8767,58.0874 80,47.5C 82.3598,42.4091 85.8598,38.4091 90.5,35.5 Z"/></g>
<g><path style="opacity:1" fill="#d3e4eb" d="M 37.5,113.5 C 47.368,113.198 51.868,117.865 51,127.5C 47.1277,135.518 41.2944,137.351 33.5,133C 27.3539,124.896 28.6873,118.396 37.5,113.5 Z"/></g>
<g><path style="opacity:1" fill="#d4e5ec" d="M 150.5,113.5 C 162.959,113.949 166.959,119.949 162.5,131.5C 155.195,137.528 149.028,136.528 144,128.5C 142.366,121.775 144.532,116.775 150.5,113.5 Z"/></g>
<g><path style="opacity:1" fill="#d4e5ec" d="M 92.5,138.5 C 102.84,137.023 108.007,141.356 108,151.5C 105.386,158.157 100.553,160.657 93.5,159C 87.6735,155.867 85.5068,151.034 87,144.5C 88.6993,142.304 90.5327,140.304 92.5,138.5 Z"/></g>
</svg>
