<?xml version="1.0" encoding="UTF-8"?>
<svg version="1.1" xmlns="http://www.w3.org/2000/svg" width="196" height="196">
<path d="M0 0 C64.68 0 129.36 0 196 0 C196 64.68 196 129.36 196 196 C131.32 196 66.64 196 0 196 C0 131.32 0 66.64 0 0 Z " fill="#D7E8EF" transform="translate(0,0)"/>
<path d="M0 0 C7.84154587 3.90450417 13.19230224 9.90660174 16.69921875 17.90625 C19.43640771 26.54550265 17.74965691 34.03653724 13.76171875 41.96875 C13.10171875 42.95875 12.44171875 43.94875 11.76171875 44.96875 C12.10410332 48.13806236 13.33224727 49.99728972 15.3515625 52.40234375 C15.88434814 53.04558594 16.41713379 53.68882813 16.96606445 54.3515625 C17.53800537 55.02960938 18.10994629 55.70765625 18.69921875 56.40625 C19.88032413 57.83085691 21.05999194 59.2566568 22.23828125 60.68359375 C22.82899414 61.39757324 23.41970703 62.11155273 24.02832031 62.84716797 C26.60845188 66.00510365 29.09975086 69.22771268 31.57421875 72.46875 C32.00017334 73.02618896 32.42612793 73.58362793 32.86499023 74.15795898 C33.83245645 75.42678374 34.79741343 76.69752131 35.76171875 77.96875 C36.88320312 77.73091797 36.88320312 77.73091797 38.02734375 77.48828125 C46.99348156 75.78471507 53.05046997 77.9326119 60.57421875 82.78125 C65.33004856 87.53707981 67.01605508 91.18541731 67.26171875 97.84375 C66.99589926 104.4892372 65.78010378 110.03858499 60.890625 114.78515625 C54.88070066 119.49993622 49.54717096 121.90242969 41.76171875 120.96875 C34.79451219 119.20766642 29.88701616 116.0624365 25.94921875 109.96875 C23.05549557 104.44602911 22.90823509 99.07377086 23.76171875 92.96875 C24.70335226 90.94061629 25.68411567 88.92802833 26.76171875 86.96875 C25.37683512 82.80467812 22.06320176 79.44508273 19.32421875 76.09375 C18.24682404 74.76218119 17.17001586 73.43013764 16.09375 72.09765625 C15.54412598 71.41848145 14.99450195 70.73930664 14.42822266 70.03955078 C11.76123127 66.72554244 9.13522332 63.37972168 6.51171875 60.03125 C6.03420166 59.4223291 5.55668457 58.8134082 5.06469727 58.18603516 C3.96310396 56.78074393 2.86231283 55.37482393 1.76171875 53.96875 C-0.54828125 54.62875 -2.85828125 55.28875 -5.23828125 55.96875 C-5.23828125 71.14875 -5.23828125 86.32875 -5.23828125 101.96875 C-2.59828125 103.28875 0.04171875 104.60875 2.76171875 105.96875 C4.8203125 108.0390625 4.8203125 108.0390625 6.19921875 110.09375 C6.67230469 110.77695313 7.14539063 111.46015625 7.6328125 112.1640625 C9.91937852 115.81940334 9.9569068 118.38860558 10.01171875 122.71875 C10.0375 123.93046875 10.06328125 125.1421875 10.08984375 126.390625 C9.49979782 132.82493536 6.56344133 136.82180777 1.76171875 140.96875 C-3.63805509 145.13107567 -8.22134388 145.71071336 -15.01171875 145.4765625 C-21.04826988 144.52649997 -25.16366789 141.66175773 -28.86328125 136.859375 C-32.9732426 130.46091244 -34.10987052 125.6306278 -33.23828125 117.96875 C-30.98993722 111.20270534 -26.51361476 106.31646976 -20.23828125 102.96875 C-19.24828125 102.96875 -18.25828125 102.96875 -17.23828125 102.96875 C-17.23828125 87.12875 -17.23828125 71.28875 -17.23828125 54.96875 C-18.88828125 54.96875 -20.53828125 54.96875 -22.23828125 54.96875 C-23.72328125 53.97875 -23.72328125 53.97875 -25.23828125 52.96875 C-25.51212646 53.55720703 -25.78597168 54.14566406 -26.06811523 54.75195312 C-27.20033143 56.89685674 -28.41322202 58.57783578 -29.9609375 60.4375 C-30.49581787 61.08541504 -31.03069824 61.73333008 -31.58178711 62.40087891 C-32.14905518 63.08327637 -32.71632324 63.76567383 -33.30078125 64.46875 C-34.47115423 65.90274701 -35.64041666 67.33765109 -36.80859375 68.7734375 C-38.45027551 70.78685535 -40.09457153 72.79683298 -41.76074219 74.79003906 C-43.08478197 76.37686537 -44.38259385 77.98176232 -45.67578125 79.59375 C-46.41699219 80.49351563 -47.15820312 81.39328125 -47.921875 82.3203125 C-49.58942699 84.9785578 -49.58942699 84.9785578 -48.5234375 88.1796875 C-47.7832171 89.78612326 -47.02930111 91.38671028 -46.23828125 92.96875 C-45.52517925 100.34661303 -46.10864042 106.94146026 -50.75 112.9140625 C-55.73735014 118.27126108 -60.76981792 121.04387871 -68.17578125 121.40625 C-74.17228506 121.18786443 -78.6095516 119.43391425 -82.99609375 115.3203125 C-88.64725354 109.06854636 -89.76980529 103.5565615 -89.609375 95.1953125 C-88.94198219 89.39250767 -86.52835296 86.00040895 -82.23046875 82.1875 C-75.9805646 77.29827609 -71.09171057 76.43101519 -63.23828125 76.96875 C-60.11328125 77.96875 -60.11328125 77.96875 -58.23828125 78.96875 C-57.99851562 78.42863281 -57.75875 77.88851562 -57.51171875 77.33203125 C-55.90555464 74.35126657 -53.94200007 71.83033004 -51.86328125 69.15625 C-51.43354004 68.60235596 -51.00379883 68.04846191 -50.56103516 67.4777832 C-45.19315228 60.58373755 -39.71699778 53.77478445 -34.23828125 46.96875 C-34.52445313 46.4015625 -34.810625 45.834375 -35.10546875 45.25 C-39.6406443 36.11709476 -42.56881105 27.90080033 -39.16796875 17.78515625 C-35.48638379 9.72791703 -30.88599712 4.31204283 -22.96875 0.3203125 C-15.67584754 -2.32193279 -7.39529408 -2.35507556 0 0 Z " fill="#36455D" transform="translate(109.23828125,26.03125)"/>
<path d="M0 0 C6.02186269 2.00728756 8.83923911 5.81030536 12.3125 10.9375 C14.26624746 16.79874238 12.78018672 21.64876834 10.203125 26.984375 C7.62443866 31.30451186 3.78179417 33.72485489 -1 35 C-5.9646522 35.54977692 -9.77544124 35.60072694 -14.3125 33.375 C-19.17634726 29.07671637 -22.50360927 25.47565412 -23.23828125 18.8515625 C-23.42196195 13.34114142 -22.73151603 10.32070277 -19 6 C-12.75324629 0.119765 -8.44581488 -0.64599717 0 0 Z " fill="#D5E6EE" transform="translate(103,36)"/>
<path d="M0 0 C3.6578218 2.03993908 5.66946174 3.50419262 8 7 C8.48256365 11.26264558 8.26873267 13.49132744 6.25 17.3125 C3.24080771 20.90681302 1.68299118 21.82095839 -2.9375 22.3125 C-6.43355571 21.95575962 -8.20520785 21.09609412 -11 19 C-13.81725233 14.7741215 -13.79958384 10.96375312 -13 6 C-9.14049112 1.02326486 -6.24979557 -0.60094188 0 0 Z " fill="#D3E4EB" transform="translate(44,114)"/>
<path d="M0 0 C4.1024547 1.00915998 5.53491132 2.13329978 8.19140625 5.5390625 C9.23460706 10.47202757 8.95345502 14.25146285 6.37890625 18.6015625 C3.55906929 21.09913238 1.60259838 21.49251245 -2.12109375 21.9140625 C-5.85026374 21.53482487 -7.89207673 20.83373955 -10.62890625 18.22265625 C-12.97810468 14.86999227 -13.42211907 11.54061098 -12.80859375 7.5390625 C-10.16178095 1.74783609 -6.31571283 -0.57707021 0 0 Z " fill="#D5E6ED" transform="translate(99.80859375,138.4609375)"/>
<path d="M0 0 C2.87029869 1.79393668 4.49131638 2.98263276 6 6 C6.49337839 10.93378393 6.52463704 13.06919235 4.0625 17.4375 C0.62252532 20.31584616 -1.37842288 21.07749922 -5.77734375 21.3125 C-9.67346466 20.76471499 -11.35907923 18.83898983 -14 16 C-15.60086627 12.79826746 -15.49917089 9.47422941 -15 6 C-11.03690229 -0.20885308 -7.02452124 -0.90991208 0 0 Z " fill="#D5E6ED" transform="translate(159,115)"/>
<path d="M0 0 C0 3 0 3 -1.875 5.1875 C-4 7 -4 7 -6 7 C-4.60667426 3.63279613 -3.0210714 2.0140476 0 0 Z " fill="#415168" transform="translate(86,131)"/>
</svg>
